<svg width="512" height="512" viewBox="0 0 512 512" fill="none" xmlns="http://www.w3.org/2000/svg">
<g clip-path="url(#clip0_14_6)">
<path d="M422 0H90C40.2944 0 0 40.2944 0 90V422C0 471.706 40.2944 512 90 512H422C471.706 512 512 471.706 512 422V90C512 40.2944 471.706 0 422 0Z" fill="#FFCE00"/>
<path d="M430.151 167.077C419.903 170.194 409.208 174.202 398.96 177.319C399.851 168.413 400.742 159.953 400.742 150.602C402.079 129.228 368.214 125.666 366.877 147.485C366.431 161.734 365.094 174.647 363.758 188.896C350.835 193.349 337.913 197.356 325.882 201.809C327.664 182.662 329.447 163.96 331.229 144.813C333.457 122.549 299.592 118.987 297.364 141.696C295.136 166.632 292.462 190.232 291.125 214.277C275.53 220.066 259.934 225.409 244.338 232.088C246.566 202.254 248.348 172.421 249.685 142.587C249.685 120.768 216.265 116.76 215.82 139.47C214.929 175.092 212.255 210.715 209.581 247.228C191.312 254.798 173.043 261.922 154.773 269.492C160.12 222.292 165.467 176.428 173.488 129.674C177.053 108.3 142.296 105.183 139.623 126.557C131.157 179.1 124.918 232.534 119.125 285.522C104.421 292.646 88.825 299.326 73.6747 306.005C53.6229 315.801 67.882 346.526 87.9338 337.62C96.8457 333.612 106.203 329.605 115.115 325.152L111.55 359.884C109.322 381.257 144.079 385.71 145.416 363.001L150.763 308.677C169.032 300.662 187.302 293.092 205.571 284.631C202.897 311.794 200.224 338.51 197.55 365.673C194.431 387.937 229.188 391.499 231.416 368.79C235.426 335.839 238.545 302.888 241.219 269.492C256.815 263.703 272.41 257.469 288.006 251.681C283.996 292.201 280.877 332.722 276.866 373.242C274.638 395.506 308.504 399.069 310.732 376.359C315.188 330.05 318.752 284.631 323.208 238.322C336.131 233.869 349.053 228.971 361.975 224.518C357.519 277.507 351.726 329.605 343.26 382.148C339.695 403.522 374.006 407.084 377.125 385.265C386.037 327.824 392.276 270.828 396.286 212.941C409.208 208.488 422.131 203.59 435.944 200.028C455.55 194.685 449.758 160.398 429.26 167.077H430.151Z" fill="#07203C"/>
</g>
<defs>
<clipPath id="clip0_14_6">
<rect width="512" height="512" fill="white"/>
</clipPath>
</defs>
</svg>
